<?xml version="1.0" encoding="UTF-8" standalone="no"?>
<!-- Created with Inkscape (http://www.inkscape.org/) -->

<svg
   xmlns:dc="http://purl.org/dc/elements/1.1/"
   xmlns:cc="http://creativecommons.org/ns#"
   xmlns:rdf="http://www.w3.org/1999/02/22-rdf-syntax-ns#"
   xmlns:svg="http://www.w3.org/2000/svg"
   xmlns="http://www.w3.org/2000/svg"
   xmlns:sodipodi="http://sodipodi.sourceforge.net/DTD/sodipodi-0.dtd"
   xmlns:inkscape="http://www.inkscape.org/namespaces/inkscape"
   width="52.895588mm"
   height="52.935005mm"
   viewBox="0 0 52.895588 52.935005"
   version="1.1"
   id="svg8"
   sodipodi:docname="icon.svg"
   inkscape:version="0.92.2 2405546, 2018-03-11">
  <defs
     id="defs2">
    <marker
       inkscape:stockid="Arrow1Lend"
       orient="auto"
       refY="0"
       refX="0"
       id="Arrow1Lend"
       style="overflow:visible"
       inkscape:isstock="true">
      <path
         id="path842"
         d="M 0,0 5,-5 -12.5,0 5,5 Z"
         style="fill:#000080;fill-opacity:1;fill-rule:evenodd;stroke:#000000;stroke-width:1.00000003pt;stroke-opacity:1"
         transform="matrix(-0.8,0,0,-0.8,-10,0)"
         inkscape:connector-curvature="0" />
    </marker>
    <filter
       style="color-interpolation-filters:sRGB"
       inkscape:label="Drop Shadow"
       id="filter2446">
      <feFlood
         flood-opacity="0.498039"
         flood-color="rgb(0,0,0)"
         result="flood"
         id="feFlood2436" />
      <feComposite
         in="flood"
         in2="SourceGraphic"
         operator="in"
         result="composite1"
         id="feComposite2438" />
      <feGaussianBlur
         in="composite1"
         stdDeviation="3"
         result="blur"
         id="feGaussianBlur2440" />
      <feOffset
         dx="6"
         dy="6"
         result="offset"
         id="feOffset2442" />
      <feComposite
         in="SourceGraphic"
         in2="offset"
         operator="over"
         result="composite2"
         id="feComposite2444" />
    </filter>
  </defs>
  <sodipodi:namedview
     id="base"
     pagecolor="#ffffff"
     bordercolor="#666666"
     borderopacity="1.0"
     inkscape:pageopacity="0.0"
     inkscape:pageshadow="2"
     inkscape:zoom="0.73228116"
     inkscape:cx="-461.49154"
     inkscape:cy="136.15935"
     inkscape:document-units="mm"
     inkscape:current-layer="g6916"
     showgrid="false"
     showborder="false"
     inkscape:window-width="1920"
     inkscape:window-height="1016"
     inkscape:window-x="0"
     inkscape:window-y="0"
     inkscape:window-maximized="1"
     showguides="false"
     fit-margin-top="0"
     fit-margin-left="0"
     fit-margin-right="0"
     fit-margin-bottom="0" />
  <metadata
     id="metadata5">
    <rdf:RDF>
      <cc:Work
         rdf:about="">
        <dc:format>image/svg+xml</dc:format>
        <dc:type
           rdf:resource="http://purl.org/dc/dcmitype/StillImage" />
        <dc:title></dc:title>
      </cc:Work>
    </rdf:RDF>
  </metadata>
  <g
     inkscape:label="Layer 1"
     inkscape:groupmode="layer"
     id="layer1"
     transform="translate(-80.815622,-53.429373)">
    <g
       id="g6916"
       transform="matrix(1.5251503,0,0,1.7962354,-42.582966,-86.228851)">
      <g
         id="g6957"
         transform="matrix(0.99892855,0,0,1.0393984,0.09244477,-4.2190137)">
        <g
           id="g2098"
           transform="matrix(0.86450031,0,0,1,16.004587,-3.2072343)">
          <g
             id="g2434"
             style="filter:url(#filter2446)"
             transform="translate(1.7003839,0.13363476)">
            <g
               aria-label="W"
               style="font-style:normal;font-variant:normal;font-weight:normal;font-stretch:normal;font-size:10.58333302px;line-height:125%;font-family:'Schumacher Clean';-inkscape-font-specification:'Schumacher Clean';letter-spacing:0px;word-spacing:0px;fill:#000000;fill-opacity:1;stroke:none;stroke-width:0.26458332px;stroke-linecap:butt;stroke-linejoin:miter;stroke-opacity:1"
               id="text817">
              <path
                 d="m 94.005111,85.316036 -2.116667,0.01411 -1.114777,5.192889 L 89.8,85.330147 h -2.201333 l -0.987778,5.122334 -1.072444,-5.122334 h -2.116667 l 2.342444,9.863667 h 1.707445 L 88.685222,89.648147 89.8,95.193814 h 1.806222 z"
                 style="font-style:normal;font-variant:normal;font-weight:normal;font-stretch:normal;font-size:14.11111069px;font-family:'Baekmuk Headline';-inkscape-font-specification:'Baekmuk Headline';stroke-width:0.26458332px"
                 id="path3168"
                 inkscape:connector-curvature="0" />
            </g>
            <g
               aria-label="A"
               style="font-style:normal;font-variant:normal;font-weight:normal;font-stretch:normal;font-size:10.58333302px;line-height:125%;font-family:'Schumacher Clean';-inkscape-font-specification:'Schumacher Clean';letter-spacing:0px;word-spacing:0px;fill:#000000;fill-opacity:1;stroke:none;stroke-width:0.26458332px;stroke-linecap:butt;stroke-linejoin:miter;stroke-opacity:1"
               id="text817-9">
              <path
                 d="m 104.34914,95.065231 -4.444997,-9.877777 h -2.031999 l -4.600223,9.877777 h 2.54 L 97.06781,92.13012 h 3.62656 l 1.19944,2.935111 z m -4.03577,-4.346222 h -2.86456 l 1.467556,-3.386666 z"
                 style="font-style:normal;font-variant:normal;font-weight:normal;font-stretch:normal;font-size:14.11111069px;font-family:'Baekmuk Headline';-inkscape-font-specification:'Baekmuk Headline';stroke-width:0.26458332px"
                 id="path3171"
                 inkscape:connector-curvature="0" />
            </g>
            <path
               style="fill:#000080;fill-rule:evenodd;stroke:#000000;stroke-width:0.33982873;stroke-linecap:butt;stroke-linejoin:miter;stroke-miterlimit:4;stroke-dasharray:none;stroke-opacity:1;marker-end:url(#Arrow1Lend)"
               d="M 76.717251,96.948756 H 110.18496"
               id="path837"
               inkscape:connector-curvature="0" />
          </g>
          <g
             id="g2309">
            <g
               style="font-style:normal;font-variant:normal;font-weight:normal;font-stretch:normal;font-size:10.58333302px;line-height:125%;font-family:'Schumacher Clean';-inkscape-font-specification:'Schumacher Clean';letter-spacing:0px;word-spacing:0px;opacity:0.09090899;fill:#000000;fill-opacity:1;stroke:none;stroke-width:0.26458332px;stroke-linecap:butt;stroke-linejoin:miter;stroke-opacity:1"
               id="text2313" />
            <g
               style="font-style:normal;font-variant:normal;font-weight:normal;font-stretch:normal;font-size:10.58333302px;line-height:125%;font-family:'Schumacher Clean';-inkscape-font-specification:'Schumacher Clean';letter-spacing:0px;word-spacing:0px;opacity:0.09090899;fill:#000000;fill-opacity:1;stroke:none;stroke-width:0.26458332px;stroke-linecap:butt;stroke-linejoin:miter;stroke-opacity:1"
               id="text2318" />
            <g
               style="font-style:normal;font-variant:normal;font-weight:normal;font-stretch:normal;font-size:10.58333302px;line-height:125%;font-family:'Schumacher Clean';-inkscape-font-specification:'Schumacher Clean';letter-spacing:0px;word-spacing:0px;opacity:0.09090899;fill:#000000;fill-opacity:1;stroke:none;stroke-width:0.26458332px;stroke-linecap:butt;stroke-linejoin:miter;stroke-opacity:1"
               id="text2323" />
            <g
               style="font-style:normal;font-variant:normal;font-weight:normal;font-stretch:normal;font-size:10.58333302px;line-height:125%;font-family:'Schumacher Clean';-inkscape-font-specification:'Schumacher Clean';letter-spacing:0px;word-spacing:0px;opacity:0.09090899;fill:#000000;fill-opacity:1;stroke:none;stroke-width:0.26458332px;stroke-linecap:butt;stroke-linejoin:miter;stroke-opacity:1"
               id="text2328" />
            <g
               style="font-style:normal;font-variant:normal;font-weight:normal;font-stretch:normal;font-size:10.58333302px;line-height:125%;font-family:'Schumacher Clean';-inkscape-font-specification:'Schumacher Clean';letter-spacing:0px;word-spacing:0px;opacity:0.09090899;fill:#000000;fill-opacity:1;stroke:none;stroke-width:0.26458332px;stroke-linecap:butt;stroke-linejoin:miter;stroke-opacity:1"
               id="text2333" />
            <g
               style="font-style:normal;font-variant:normal;font-weight:normal;font-stretch:normal;font-size:10.58333302px;line-height:125%;font-family:'Schumacher Clean';-inkscape-font-specification:'Schumacher Clean';letter-spacing:0px;word-spacing:0px;opacity:0.09090899;fill:#000000;fill-opacity:1;stroke:none;stroke-width:0.26458332px;stroke-linecap:butt;stroke-linejoin:miter;stroke-opacity:1"
               id="text2338" />
            <g
               style="font-style:normal;font-variant:normal;font-weight:normal;font-stretch:normal;font-size:10.58333302px;line-height:125%;font-family:'Schumacher Clean';-inkscape-font-specification:'Schumacher Clean';letter-spacing:0px;word-spacing:0px;opacity:0.09090899;fill:#000000;fill-opacity:1;stroke:none;stroke-width:0.26458332px;stroke-linecap:butt;stroke-linejoin:miter;stroke-opacity:1"
               id="text2343" />
            <g
               style="font-style:normal;font-variant:normal;font-weight:normal;font-stretch:normal;font-size:10.58333302px;line-height:125%;font-family:'Schumacher Clean';-inkscape-font-specification:'Schumacher Clean';letter-spacing:0px;word-spacing:0px;opacity:0.09090899;fill:#000000;fill-opacity:1;stroke:none;stroke-width:0.26458332px;stroke-linecap:butt;stroke-linejoin:miter;stroke-opacity:1"
               id="text2348" />
            <g
               style="font-style:normal;font-variant:normal;font-weight:normal;font-stretch:normal;font-size:10.58333302px;line-height:125%;font-family:'Schumacher Clean';-inkscape-font-specification:'Schumacher Clean';letter-spacing:0px;word-spacing:0px;opacity:0.09090899;fill:#000000;fill-opacity:1;stroke:none;stroke-width:0.26458332px;stroke-linecap:butt;stroke-linejoin:miter;stroke-opacity:1"
               id="text2353" />
            <g
               style="font-style:normal;font-variant:normal;font-weight:normal;font-stretch:normal;font-size:10.58333302px;line-height:125%;font-family:'Schumacher Clean';-inkscape-font-specification:'Schumacher Clean';letter-spacing:0px;word-spacing:0px;opacity:0.09090899;fill:#000000;fill-opacity:1;stroke:none;stroke-width:0.26458332px;stroke-linecap:butt;stroke-linejoin:miter;stroke-opacity:1"
               id="text2358" />
            <g
               style="font-style:normal;font-variant:normal;font-weight:normal;font-stretch:normal;font-size:10.58333302px;line-height:125%;font-family:'Schumacher Clean';-inkscape-font-specification:'Schumacher Clean';letter-spacing:0px;word-spacing:0px;opacity:0.09090899;fill:#000000;fill-opacity:1;stroke:none;stroke-width:0.26458332px;stroke-linecap:butt;stroke-linejoin:miter;stroke-opacity:1"
               id="text2363" />
          </g>
          <g
             id="g2366">
            <g
               style="font-style:normal;font-variant:normal;font-weight:normal;font-stretch:normal;font-size:10.58333302px;line-height:125%;font-family:'Schumacher Clean';-inkscape-font-specification:'Schumacher Clean';letter-spacing:0px;word-spacing:0px;opacity:0.09090899;fill:#000000;fill-opacity:1;stroke:none;stroke-width:0.26458332px;stroke-linecap:butt;stroke-linejoin:miter;stroke-opacity:1"
               id="text2370" />
            <g
               style="font-style:normal;font-variant:normal;font-weight:normal;font-stretch:normal;font-size:10.58333302px;line-height:125%;font-family:'Schumacher Clean';-inkscape-font-specification:'Schumacher Clean';letter-spacing:0px;word-spacing:0px;opacity:0.09090899;fill:#000000;fill-opacity:1;stroke:none;stroke-width:0.26458332px;stroke-linecap:butt;stroke-linejoin:miter;stroke-opacity:1"
               id="text2375" />
            <g
               style="font-style:normal;font-variant:normal;font-weight:normal;font-stretch:normal;font-size:10.58333302px;line-height:125%;font-family:'Schumacher Clean';-inkscape-font-specification:'Schumacher Clean';letter-spacing:0px;word-spacing:0px;opacity:0.09090899;fill:#000000;fill-opacity:1;stroke:none;stroke-width:0.26458332px;stroke-linecap:butt;stroke-linejoin:miter;stroke-opacity:1"
               id="text2380" />
            <g
               style="font-style:normal;font-variant:normal;font-weight:normal;font-stretch:normal;font-size:10.58333302px;line-height:125%;font-family:'Schumacher Clean';-inkscape-font-specification:'Schumacher Clean';letter-spacing:0px;word-spacing:0px;opacity:0.09090899;fill:#000000;fill-opacity:1;stroke:none;stroke-width:0.26458332px;stroke-linecap:butt;stroke-linejoin:miter;stroke-opacity:1"
               id="text2385" />
            <g
               style="font-style:normal;font-variant:normal;font-weight:normal;font-stretch:normal;font-size:10.58333302px;line-height:125%;font-family:'Schumacher Clean';-inkscape-font-specification:'Schumacher Clean';letter-spacing:0px;word-spacing:0px;opacity:0.09090899;fill:#000000;fill-opacity:1;stroke:none;stroke-width:0.26458332px;stroke-linecap:butt;stroke-linejoin:miter;stroke-opacity:1"
               id="text2390" />
            <g
               style="font-style:normal;font-variant:normal;font-weight:normal;font-stretch:normal;font-size:10.58333302px;line-height:125%;font-family:'Schumacher Clean';-inkscape-font-specification:'Schumacher Clean';letter-spacing:0px;word-spacing:0px;opacity:0.09090899;fill:#000000;fill-opacity:1;stroke:none;stroke-width:0.26458332px;stroke-linecap:butt;stroke-linejoin:miter;stroke-opacity:1"
               id="text2395" />
            <g
               style="font-style:normal;font-variant:normal;font-weight:normal;font-stretch:normal;font-size:10.58333302px;line-height:125%;font-family:'Schumacher Clean';-inkscape-font-specification:'Schumacher Clean';letter-spacing:0px;word-spacing:0px;opacity:0.09090899;fill:#000000;fill-opacity:1;stroke:none;stroke-width:0.26458332px;stroke-linecap:butt;stroke-linejoin:miter;stroke-opacity:1"
               id="text2400" />
            <g
               style="font-style:normal;font-variant:normal;font-weight:normal;font-stretch:normal;font-size:10.58333302px;line-height:125%;font-family:'Schumacher Clean';-inkscape-font-specification:'Schumacher Clean';letter-spacing:0px;word-spacing:0px;opacity:0.09090899;fill:#000000;fill-opacity:1;stroke:none;stroke-width:0.26458332px;stroke-linecap:butt;stroke-linejoin:miter;stroke-opacity:1"
               id="text2405" />
            <g
               style="font-style:normal;font-variant:normal;font-weight:normal;font-stretch:normal;font-size:10.58333302px;line-height:125%;font-family:'Schumacher Clean';-inkscape-font-specification:'Schumacher Clean';letter-spacing:0px;word-spacing:0px;opacity:0.09090899;fill:#000000;fill-opacity:1;stroke:none;stroke-width:0.26458332px;stroke-linecap:butt;stroke-linejoin:miter;stroke-opacity:1"
               id="text2410" />
          </g>
        </g>
        <path
           style="fill:none;fill-opacity:1;stroke:#000000;stroke-width:0.4996264;stroke-miterlimit:4;stroke-dasharray:none;stroke-opacity:1"
           d="M 114.0535,93.038927 A 16.431288,13.926642 0 0 1 97.622218,106.96557 16.431288,13.926642 0 0 1 81.190929,93.038927 16.431288,13.926642 0 0 1 97.622218,79.112285 16.431288,13.926642 0 0 1 114.0535,93.038927 Z"
           id="path2448"
           inkscape:connector-curvature="0" />
        <g
           aria-label="Webatima"
           transform="matrix(0.88508683,0,0,1.2575194,-12.889627,0)"
           style="font-style:normal;font-variant:normal;font-weight:normal;font-stretch:normal;font-size:10.02384949px;line-height:125%;font-family:'Schumacher Clean';-inkscape-font-specification:'Schumacher Clean';letter-spacing:0px;word-spacing:0px;fill:#000000;fill-opacity:1;stroke:none;stroke-width:0.25059623px;stroke-linecap:butt;stroke-linejoin:miter;stroke-opacity:1"
           id="text2476">
          <path
             d="m 117.19533,76.48526 v 0.126969 q -0.2673,0.05346 -0.36754,0.133651 -0.0935,0.08019 -0.18711,0.340811 -0.55465,1.490212 -0.74845,2.044865 -0.19379,0.554653 -0.61479,1.851071 h -0.10024 l -1.06921,-2.826726 -1.02912,2.826726 h -0.10024 l -1.28973,-3.588538 q -0.16706,-0.46778 -0.30072,-0.608114 -0.12697,-0.147016 -0.38759,-0.173746 V 76.48526 h 1.63723 v 0.126969 q -0.25393,0.01337 -0.34749,0.06014 -0.0869,0.0401 -0.0869,0.153699 0,0.120286 0.0735,0.307398 l 0.96228,2.512645 0.71504,-1.884484 -0.22053,-0.54797 q -0.16038,-0.400954 -0.27398,-0.49451 -0.1136,-0.100239 -0.40095,-0.106921 V 76.48526 h 1.78424 v 0.126969 q -0.51456,0.0067 -0.51456,0.233889 0,0.07351 0.18043,0.541288 l 0.8821,2.278755 0.83532,-2.26539 q 0.10692,-0.300715 0.10692,-0.501192 0,-0.133651 -0.10692,-0.193794 -0.10024,-0.06683 -0.35417,-0.09356 V 76.48526 Z"
             style="font-style:normal;font-variant:normal;font-weight:normal;font-stretch:normal;font-size:6.68256617px;font-family:FreeSerif;-inkscape-font-specification:FreeSerif;stroke-width:0.25059623px"
             id="path3150"
             inkscape:connector-curvature="0" />
          <path
             d="m 117.57279,79.058048 q 0.0134,0.421001 0.11361,0.7284 0.10024,0.300715 0.26062,0.454414 0.16038,0.147016 0.32076,0.213842 0.16707,0.06014 0.34749,0.06014 0.32077,0 0.55466,-0.160381 0.24057,-0.160382 0.48114,-0.541288 l 0.10692,0.04678 q -0.20716,0.541288 -0.5747,0.828638 -0.36754,0.28735 -0.842,0.28735 -0.5747,0 -0.91551,-0.400954 -0.33413,-0.407636 -0.33413,-1.095941 0,-0.741764 0.38759,-1.189496 0.39427,-0.454415 1.00907,-0.454415 0.50787,0 0.78854,0.307398 0.28067,0.300716 0.35417,0.915512 z m 0.0134,-0.213842 h 1.36324 q -0.0668,-0.434367 -0.20716,-0.601431 -0.14033,-0.167064 -0.44773,-0.167064 -0.60143,0 -0.70835,0.768495 z"
             style="font-style:normal;font-variant:normal;font-weight:normal;font-stretch:normal;font-size:6.68256617px;font-family:FreeSerif;-inkscape-font-specification:FreeSerif;stroke-width:0.25059623px"
             id="path3152"
             inkscape:connector-curvature="0" />
          <path
             d="m 120.82606,76.358291 v 2.044865 q 0.10023,-0.247255 0.36085,-0.407636 0.26062,-0.160382 0.56802,-0.160382 0.50119,0 0.83532,0.421002 0.34081,0.414319 0.34081,1.029115 0,0.715035 -0.45441,1.202862 -0.44773,0.487827 -1.10931,0.487827 -0.40095,0 -0.75513,-0.133651 -0.34749,-0.140334 -0.34749,-0.294033 v -3.468252 q 0,-0.207159 -0.0668,-0.273985 -0.0601,-0.06683 -0.26062,-0.06683 -0.0735,0 -0.1136,0.0067 v -0.106921 q 0.51456,-0.126969 0.96897,-0.294033 z m 0,2.399041 v 1.684007 q 0,0.126969 0.19379,0.227207 0.19379,0.09356 0.45441,0.09356 0.41432,0 0.64153,-0.307398 0.22721,-0.307398 0.22721,-0.862051 0,-0.608113 -0.23389,-0.968972 -0.22721,-0.367541 -0.62148,-0.367541 -0.26062,0 -0.4611,0.153699 -0.20047,0.153699 -0.20047,0.347493 z"
             style="font-style:normal;font-variant:normal;font-weight:normal;font-stretch:normal;font-size:6.68256617px;font-family:FreeSerif;-inkscape-font-specification:FreeSerif;stroke-width:0.25059623px"
             id="path3154"
             inkscape:connector-curvature="0" />
          <path
             d="m 123.26519,80.26091 q 0,-0.120286 0.0267,-0.220525 0.0267,-0.106921 0.0936,-0.193794 0.0668,-0.09356 0.12697,-0.167065 0.0601,-0.07351 0.18043,-0.147016 0.12028,-0.08019 0.20047,-0.126969 0.0802,-0.05346 0.24058,-0.120286 0.16706,-0.07351 0.25393,-0.106921 0.0869,-0.0401 0.27399,-0.113604 0.18711,-0.07351 0.27398,-0.106921 v -0.407636 q 0,-0.554653 -0.50787,-0.554653 -0.20048,0 -0.34081,0.100238 -0.14034,0.09356 -0.14034,0.227208 0,0.05346 0.0134,0.147016 0.0201,0.09356 0.0201,0.120286 0,0.113604 -0.0936,0.200477 -0.0869,0.08019 -0.20716,0.08019 -0.1136,0 -0.20048,-0.08687 -0.0869,-0.08687 -0.0869,-0.200477 0,-0.314081 0.32076,-0.527923 0.32745,-0.220525 0.80191,-0.220525 0.54797,0 0.75513,0.267303 0.20716,0.26062 0.20716,0.801908 v 1.3031 q 0,0.220525 0.0401,0.307398 0.0468,0.08019 0.16038,0.08019 0.14033,0 0.29403,-0.126969 v 0.173747 q -0.17375,0.193794 -0.3074,0.267303 -0.12697,0.06682 -0.29403,0.06682 -0.20716,0 -0.3074,-0.113603 -0.0935,-0.113604 -0.12028,-0.374224 -0.57471,0.487827 -0.97566,0.487827 -0.3074,0 -0.50787,-0.200477 -0.1938,-0.200477 -0.1938,-0.514557 z m 1.67064,-0.173747 v -0.968972 q -0.60143,0.220525 -0.842,0.427684 -0.24057,0.20716 -0.24057,0.501193 0,0.273985 0.13365,0.407636 0.13365,0.133651 0.28735,0.133651 0.22721,0 0.48783,-0.153699 0.10692,-0.06014 0.14033,-0.126968 0.0334,-0.06683 0.0334,-0.220525 z"
             style="font-style:normal;font-variant:normal;font-weight:normal;font-stretch:normal;font-size:6.68256617px;font-family:FreeSerif;-inkscape-font-specification:FreeSerif;stroke-width:0.25059623px"
             id="path3156"
             inkscape:connector-curvature="0" />
          <path
             d="m 127.67422,77.901964 v 0.213842 h -0.67494 v 1.911214 q 0,0.314081 0.0802,0.461097 0.0802,0.140334 0.2673,0.140334 0.20716,0 0.40095,-0.23389 l 0.0869,0.07351 q -0.32077,0.507875 -0.80191,0.507875 -0.59475,0 -0.59475,-0.848686 v -2.011452 h -0.35418 q -0.0267,-0.02005 -0.0267,-0.04678 0,-0.03341 0.02,-0.05346 0.02,-0.02005 0.0735,-0.05346 0.0601,-0.0401 0.14033,-0.100239 0.0802,-0.06682 0.22053,-0.233889 0.14033,-0.167064 0.3074,-0.400954 0.10692,-0.153699 0.13365,-0.187112 0.0468,0 0.0468,0.08687 v 0.775178 z"
             style="font-style:normal;font-variant:normal;font-weight:normal;font-stretch:normal;font-size:6.68256617px;font-family:FreeSerif;-inkscape-font-specification:FreeSerif;stroke-width:0.25059623px"
             id="path3158"
             inkscape:connector-curvature="0" />
          <path
             d="m 128.25028,78.28287 q -0.14702,0 -0.28067,0.02005 v -0.100239 q 0.46778,-0.133651 1.0358,-0.367541 l 0.0267,0.02005 v 2.372311 q 0,0.360858 0.0802,0.461097 0.0869,0.09356 0.41432,0.120286 v 0.100239 h -1.58377 V 80.80888 q 0.3475,-0.02005 0.43437,-0.120286 0.0936,-0.100239 0.0936,-0.461097 v -1.550355 q 0,-0.220525 -0.0535,-0.307398 -0.0468,-0.08687 -0.16707,-0.08687 z m 0.44105,-1.937944 q 0.14702,0 0.24726,0.100238 0.10023,0.100239 0.10023,0.240573 0,0.147016 -0.10023,0.247255 -0.10024,0.09356 -0.24726,0.09356 -0.14033,0 -0.24057,-0.100239 -0.0936,-0.100238 -0.0936,-0.240572 0,-0.140334 0.10024,-0.240573 0.10024,-0.100238 0.23389,-0.100238 z"
             style="font-style:normal;font-variant:normal;font-weight:normal;font-stretch:normal;font-size:6.68256617px;font-family:FreeSerif;-inkscape-font-specification:FreeSerif;stroke-width:0.25059623px"
             id="path3160"
             inkscape:connector-curvature="0" />
          <path
             d="m 129.71094,78.249457 v -0.113603 q 0.48115,-0.133652 0.93556,-0.300716 l 0.0468,0.01336 v 0.501193 q 0.41432,-0.314081 0.6148,-0.414319 0.20047,-0.100239 0.421,-0.100239 0.52792,0 0.70835,0.561336 0.52124,-0.561336 1.08926,-0.561336 0.77518,0 0.77518,1.189497 v 1.376609 q 0,0.374223 0.28735,0.394271 l 0.17374,0.01337 v 0.100239 H 133.2995 V 80.80888 q 0.29404,-0.03341 0.36754,-0.113603 0.0735,-0.08019 0.0735,-0.367542 v -1.410021 q 0,-0.414319 -0.10692,-0.574701 -0.10692,-0.160381 -0.39427,-0.160381 -0.44105,0 -0.7284,0.407636 v 1.684007 q 0,0.31408 0.0936,0.421002 0.10023,0.106921 0.38758,0.113603 v 0.100239 h -1.49689 V 80.80888 q 0.28735,-0.02005 0.36754,-0.106921 0.0869,-0.08687 0.0869,-0.367541 v -1.450117 q 0,-0.701669 -0.44105,-0.701669 -0.18711,0 -0.421,0.09356 -0.2272,0.09356 -0.36754,0.300715 v 1.884484 q 0,0.193794 0.0936,0.267302 0.0935,0.06683 0.36086,0.08019 v 0.100239 H 129.6909 V 80.80888 q 0.28066,-0.0067 0.37422,-0.100238 0.0936,-0.09356 0.0936,-0.367541 v -1.69069 q 0,-0.240572 -0.0535,-0.334128 -0.0468,-0.09356 -0.18043,-0.09356 -0.10024,0 -0.21385,0.02673 z"
             style="font-style:normal;font-variant:normal;font-weight:normal;font-stretch:normal;font-size:6.68256617px;font-family:FreeSerif;-inkscape-font-specification:FreeSerif;stroke-width:0.25059623px"
             id="path3162"
             inkscape:connector-curvature="0" />
          <path
             d="m 134.95968,80.26091 q 0,-0.120286 0.0267,-0.220525 0.0267,-0.106921 0.0936,-0.193794 0.0668,-0.09356 0.12697,-0.167065 0.0601,-0.07351 0.18043,-0.147016 0.12028,-0.08019 0.20047,-0.126969 0.0802,-0.05346 0.24058,-0.120286 0.16706,-0.07351 0.25393,-0.106921 0.0869,-0.0401 0.27399,-0.113604 0.18711,-0.07351 0.27398,-0.106921 v -0.407636 q 0,-0.554653 -0.50787,-0.554653 -0.20048,0 -0.34081,0.100238 -0.14034,0.09356 -0.14034,0.227208 0,0.05346 0.0134,0.147016 0.02,0.09356 0.02,0.120286 0,0.113604 -0.0936,0.200477 -0.0869,0.08019 -0.20716,0.08019 -0.1136,0 -0.20048,-0.08687 -0.0869,-0.08687 -0.0869,-0.200477 0,-0.314081 0.32076,-0.527923 0.32745,-0.220525 0.80191,-0.220525 0.54797,0 0.75513,0.267303 0.20716,0.26062 0.20716,0.801908 v 1.3031 q 0,0.220525 0.0401,0.307398 0.0468,0.08019 0.16038,0.08019 0.14033,0 0.29403,-0.126969 v 0.173747 q -0.17375,0.193794 -0.3074,0.267303 -0.12697,0.06682 -0.29403,0.06682 -0.20716,0 -0.3074,-0.113603 -0.0936,-0.113604 -0.12028,-0.374224 -0.5747,0.487827 -0.97566,0.487827 -0.3074,0 -0.50787,-0.200477 -0.1938,-0.200477 -0.1938,-0.514557 z m 1.67064,-0.173747 v -0.968972 q -0.60143,0.220525 -0.842,0.427684 -0.24057,0.20716 -0.24057,0.501193 0,0.273985 0.13365,0.407636 0.13365,0.133651 0.28735,0.133651 0.22721,0 0.48783,-0.153699 0.10692,-0.06014 0.14033,-0.126968 0.0334,-0.06683 0.0334,-0.220525 z"
             style="font-style:normal;font-variant:normal;font-weight:normal;font-stretch:normal;font-size:6.68256617px;font-family:FreeSerif;-inkscape-font-specification:FreeSerif;stroke-width:0.25059623px"
             id="path3164"
             inkscape:connector-curvature="0" />
        </g>
      </g>
    </g>
  </g>
</svg>
